HIERARCHY
ROOT Hips
{
 OFFSET 0.000000 0.000000 0.000000
 CHANNELS 6 Xposition Yposition Zposition Yrotation Xrotation Zrotation
 JOINT Chest
 {
  OFFSET 0.000000 9.585900 0.002600
  CHANNELS 3 Yrotation Xrotation Zrotation
  JOINT Chest2
  {
   OFFSET 0.000000 9.601200 -0.005300
   CHANNELS 3 Yrotation Xrotation Zrotation
   JOINT Chest3
   {
    OFFSET 0.000000 9.561800 0.000000
    CHANNELS 3 Yrotation Xrotation Zrotation
    JOINT Chest4
    {
     OFFSET 0.000000 9.552100 0.000000
     CHANNELS 3 Yrotation Xrotation Zrotation
     JOINT Neck
     {
      OFFSET 0.000000 14.453000 0.000000
      CHANNELS 3 Yrotation Xrotation Zrotation
      JOINT Head
      {
       OFFSET 0.000000 8.936500 -0.011300
       CHANNELS 3 Yrotation Xrotation Zrotation
       End Site
       {
        OFFSET 0.000000 17.073600 -0.006000
       }
      }
     }
     JOINT RightCollar
     {
      OFFSET -2.921100 9.558500 0.000000
      CHANNELS 3 Yrotation Xrotation Zrotation
      JOINT RightShoulder
      {
       OFFSET -13.519700 0.000000 0.000000
       CHANNELS 3 Yrotation Xrotation Zrotation
       JOINT RightElbow
       {
        OFFSET 0.000000 -29.696600 0.000000
        CHANNELS 3 Yrotation Xrotation Zrotation
        JOINT RightWrist
        {
         OFFSET 0.000000 -24.004700 0.000000
         CHANNELS 3 Yrotation Xrotation Zrotation
         End Site
         {
          OFFSET 0.000000 -17.728500 0.000000
         }
        }
       }
      }
     }
     JOINT LeftCollar
     {
      OFFSET 2.921100 9.558500 0.000000
      CHANNELS 3 Yrotation Xrotation Zrotation
      JOINT LeftShoulder
      {
       OFFSET 13.519700 0.000000 0.000000
       CHANNELS 3 Yrotation Xrotation Zrotation
       JOINT LeftElbow
       {
        OFFSET 0.000000 -29.696600 0.000000
        CHANNELS 3 Yrotation Xrotation Zrotation
        JOINT LeftWrist
        {
         OFFSET 0.000000 -24.004700 0.000000
         CHANNELS 3 Yrotation Xrotation Zrotation
         End Site
         {
          OFFSET 0.000000 -17.728500 0.000000
         }
        }
       }
      }
     }
    }
   }
  }
 }
 JOINT RightHip
 {
  OFFSET -7.771700 -0.012900 -0.001300
  CHANNELS 3 Yrotation Xrotation Zrotation
  JOINT RightKnee
  {
   OFFSET 0.000000 -40.869800 0.001200
   CHANNELS 3 Yrotation Xrotation Zrotation
   JOINT RightAnkle
   {
    OFFSET 0.000000 -39.717900 0.002100
    CHANNELS 3 Yrotation Xrotation Zrotation
    JOINT RightToe
    {
     OFFSET 0.000000 -4.965400 11.033500
     CHANNELS 3 Yrotation Xrotation Zrotation
     End Site
     {
      OFFSET 0.000000 -1.423100 5.872300
     }
    }
   }
  }
 }
 JOINT LeftHip
 {
  OFFSET 7.771700 -0.012900 -0.001300
  CHANNELS 3 Yrotation Xrotation Zrotation
  JOINT LeftKnee
  {
   OFFSET 0.000000 -40.869800 0.001200
   CHANNELS 3 Yrotation Xrotation Zrotation
   JOINT LeftAnkle
   {
    OFFSET 0.000000 -39.717900 0.002100
    CHANNELS 3 Yrotation Xrotation Zrotation
    JOINT LeftToe
    {
     OFFSET 0.000000 -4.965400 11.033500
     CHANNELS 3 Yrotation Xrotation Zrotation
     End Site
     {
      OFFSET 0.000000 -1.423100 5.872300
     }
    }
   }
  }
 }
}
MOTION
Frames: 16
Frame Time: 0.008333
-21.636483 48.955570 28.548704 175.719939 -30.699805 -1.319360 0.339878 14.262295 1.984147 0.006699 8.139148 1.574152 0.054268 10.196878 1.937012 0.016689 8.163940 1.524327 -1.083683 17.309220 -2.455624 -1.173458 -3.638202 -4.206862 6.987470 3.038561 -2.792158 0.209792 -18.490577 -9.956661 35.580232 -61.862711 -25.225451 11.324754 5.111628 -36.854252 -6.797107 -1.404935 -5.263975 6.780368 -20.685770 -2.187248 -70.953914 -44.107976 46.108615 -9.006886 11.501484 36.359632 26.598996 -49.989236 -27.821532 -111.815877 66.575932 -102.501476 -3.109206 -4.651132 1.938364 -0.196983 -0.789443 -0.075630 -9.288017 -52.457776 13.715666 111.771238 79.811945 109.431823 -4.060340 -11.727092 -4.245058 0.579594 0.824299 0.260125
-21.645556 48.948910 28.552020 175.715147 -30.713208 -1.322287 0.332101 14.257500 2.015412 0.008206 8.147568 1.566661 0.045717 10.185009 1.977623 0.011162 8.156341 1.560079 -1.109231 17.276937 -2.431722 -1.224987 -3.709843 -4.115009 6.981434 3.053285 -2.814660 0.223032 -18.530754 -9.959922 35.640961 -61.845947 -25.286037 11.327618 5.099558 -36.837411 -6.801095 -1.450917 -5.249350 6.736499 -20.705924 -2.192008 -70.743844 -44.114878 45.848301 -8.979119 11.499073 36.371083 26.611140 -49.975118 -27.820239 -111.801831 66.590157 -102.492445 -3.117022 -4.631570 1.947161 -0.203102 -0.792036 -0.080220 -9.299059 -52.449293 13.715702 111.743291 79.795606 109.412237 -4.068960 -11.721566 -4.263903 0.588821 0.818885 0.267946
-21.656673 48.942829 28.554651 175.689392 -30.737019 -1.296546 0.336648 14.262324 2.025731 0.011218 8.156466 1.560849 0.036268 10.173095 2.014780 0.006800 8.154448 1.573288 -1.125443 17.241631 -2.383152 -1.270582 -3.776357 -4.020066 6.981830 3.064402 -2.812953 0.241922 -18.540296 -10.000926 35.678950 -61.876906 -25.335187 11.356363 5.123239 -36.821026 -6.799570 -1.478345 -5.242264 6.678586 -20.746445 -2.169995 -70.555281 -44.117124 45.619114 -8.958054 11.492983 36.395594 26.654888 -49.944854 -27.837012 -111.778644 66.605282 -102.479280 -3.122815 -4.612294 1.956446 -0.204526 -0.791923 -0.078328 -9.276135 -52.431351 13.684059 111.733043 79.773923 109.397496 -4.053077 -11.712815 -4.266087 0.569792 0.810110 0.260489
-21.665983 48.935589 28.560186 175.671525 -30.747846 -1.280456 0.332390 14.256513 2.042449 -0.006193 8.134184 1.611006 0.038105 10.189862 1.986521 0.005904 8.165522 1.550854 -1.130599 17.194499 -2.296077 -1.309569 -3.840963 -3.923210 6.986557 3.062618 -2.773909 0.256081 -18.551889 -10.040765 35.725577 -61.908043 -25.393293 11.386090 5.146813 -36.809676 -6.798627 -1.490025 -5.239883 6.607133 -20.808085 -2.110089 -70.377900 -44.134794 45.445496 -8.970075 11.489038 36.383182 26.709371 -49.925157 -27.863933 -111.756112 66.615342 -102.462414 -3.111446 -4.586162 1.970406 -0.227735 -0.793983 -0.076657 -9.255817 -52.424238 13.666315 111.717584 79.777252 109.388107 -4.060616 -11.714214 -4.272487 0.588256 0.813726 0.262340
-21.674012 48.929137 28.565404 175.676482 -30.767087 -1.275635 0.313742 14.258699 2.056759 -0.011672 8.130819 1.623351 0.038147 10.199261 1.973641 0.003888 8.164440 1.557454 -1.134560 17.145130 -2.211459 -1.342721 -3.908802 -3.826306 6.990437 3.071535 -2.771022 0.260526 -18.642049 -9.953993 35.843387 -61.833528 -25.522597 11.414526 5.172137 -36.799894 -6.800431 -1.499448 -5.238434 6.546517 -20.862816 -2.055302 -70.218814 -44.150379 45.289701 -8.986083 11.484778 36.373558 26.733928 -49.899591 -27.879550 -111.757433 66.613915 -102.458119 -3.129015 -4.576651 1.975950 -0.218316 -0.791828 -0.075426 -9.251433 -52.414337 13.634138 111.680644 79.770110 109.358239 -4.035261 -11.698897 -4.273758 0.574443 0.809405 0.253014
-21.681444 48.922700 28.571568 175.682935 -30.785560 -1.266125 0.293634 14.259071 2.068386 -0.020145 8.127106 1.630819 0.039481 10.209895 1.962306 -0.004070 8.149675 1.595875 -1.141348 17.104023 -2.166521 -1.369484 -3.983292 -3.729303 6.998390 3.099322 -2.799641 0.268289 -18.700651 -9.899391 35.930710 -61.765665 -25.617503 11.425155 5.166093 -36.811887 -6.793317 -1.524416 -5.201013 6.521688 -20.875962 -2.078353 -70.139777 -44.106416 45.125821 -8.906982 11.481703 36.443370 26.753899 -49.873889 -27.895056 -111.749245 66.611211 -102.450807 -3.142402 -4.573847 1.983585 -0.207366 -0.783996 -0.074485 -9.224181 -52.411556 13.576658 111.623238 79.756825 109.318502 -4.001124 -11.672596 -4.271526 0.544436 0.797840 0.239045
-21.681911 48.915546 28.580570 175.652582 -30.794110 -1.269833 0.292570 14.225278 2.130809 -0.009495 8.151877 1.604330 0.032957 10.203446 1.985984 -0.015074 8.123905 1.641748 -1.152398 17.079773 -2.164040 -1.389946 -4.065159 -3.631660 7.011639 3.145873 -2.830577 0.286137 -18.734055 -9.890408 36.021314 -61.775239 -25.741257 11.453855 5.206964 -36.789974 -6.779752 -1.505515 -5.244830 6.500975 -20.897573 -2.081025 -70.076160 -44.089287 45.037174 -8.860002 11.478344 36.470324 26.792674 -49.872456 -27.875106 -111.696496 66.609014 -102.413472 -3.140206 -4.592925 2.017797 -0.219995 -0.730387 -0.082758 -9.214955 -52.406613 13.597345 111.581727 79.764106 109.283810 -3.925636 -11.595461 -4.253795 0.479337 0.737568 0.207824
-21.684088 48.909603 28.587890 175.654680 -30.816751 -1.267746 0.281337 14.230088 2.142159 -0.015284 8.144113 1.614971 0.024749 10.200878 1.997641 -0.018094 8.121637 1.645921 -1.151876 17.032810 -2.114770 -1.406415 -4.155328 -3.534081 7.025184 3.165622 -2.750050 0.319224 -18.764931 -9.946246 36.111339 -61.779089 -25.865609 11.480042 5.239349 -36.764330 -6.774315 -1.488065 -5.257033 6.505620 -20.900781 -2.103467 -70.075310 -44.064446 45.011161 -8.866956 11.478988 36.458724 26.787685 -49.850938 -27.865836 -111.685610 66.607976 -102.404523 -3.144229 -4.596428 2.024887 -0.216548 -0.720876 -0.085671 -9.205838 -52.387293 13.585059 111.512821 79.760627 109.217188 -3.925612 -11.590764 -4.252817 0.469720 0.744639 0.207065
-21.685160 48.902646 28.597322 175.652772 -30.828713 -1.259829 0.278930 14.235821 2.139782 -0.027527 8.118021 1.642148 0.016959 10.191669 2.015719 -0.015575 8.156266 1.601202 -1.144988 16.961496 -2.030887 -1.420161 -4.253219 -3.438804 7.026667 3.172963 -2.716361 0.331838 -18.787692 -9.954644 36.151480 -61.800324 -25.936997 11.501212 5.259105 -36.741595 -6.777188 -1.483293 -5.233977 6.474415 -20.947185 -2.068717 -69.974854 -44.087508 44.921439 -8.920067 11.485619 36.442706 26.809733 -49.840611 -27.870641 -111.655833 66.589046 -102.374351 -3.155275 -4.577451 2.033663 -0.197503 -0.722035 -0.085397 -9.190957 -52.383547 13.570665 111.401013 79.735308 109.103799 -3.938375 -11.572598 -4.243676 0.452998 0.743140 0.201611
-21.690567 48.897337 28.603452 175.650318 -30.863329 -1.213856 0.259780 14.246317 2.110306 -0.034171 8.118108 1.648316 0.020597 10.203757 2.003411 -0.019645 8.142976 1.622077 -1.145077 16.908260 -1.978319 -1.429637 -4.358522 -3.348225 7.028644 3.203914 -2.736550 0.332909 -18.812763 -9.930973 36.182151 -61.818647 -26.003073 11.531322 5.293053 -36.700561 -6.777249 -1.457992 -5.245445 6.424561 -21.027153 -1.976001 -69.852827 -44.113341 44.791779 -8.883440 11.480547 36.448619 26.861961 -49.791796 -27.912608 -111.646209 66.573111 -102.362999 -3.171992 -4.510751 2.048496 -0.176313 -0.777557 -0.088561 -9.122362 -52.359803 13.496011 111.361816 79.733058 109.061257 -4.006152 -11.619750 -4.253211 0.518347 0.794029 0.230049
-21.685668 48.891711 28.611007 175.637999 -30.896067 -1.215903 0.257221 14.252544 2.137096 -0.030170 8.133010 1.638897 0.013124 10.190832 2.025126 -0.022634 8.143937 1.626960 -1.147277 16.852708 -1.938058 -1.432963 -4.471060 -3.263004 7.023493 3.238001 -2.731792 0.360166 -18.864618 -9.909024 36.226859 -61.796011 -26.089661 11.545701 5.293138 -36.680961 -6.776923 -1.431786 -5.270945 6.420898 -21.054555 -1.949069 -69.829449 -44.107866 44.785596 -8.863468 11.467871 36.422506 26.870783 -49.775841 -27.880524 -111.648284 66.554078 -102.367550 -3.187426 -4.487175 2.085886 -0.160852 -0.789553 -0.115852 -9.113368 -52.336133 13.518497 111.399816 79.743953 109.099532 -4.016797 -11.602143 -4.249012 0.516020 0.781804 0.231722
-21.676150 48.886394 28.618105 175.607562 -30.936103 -1.228671 0.277245 14.267877 2.184730 -0.028006 8.146584 1.628928 -0.011717 10.168101 2.060397 -0.035676 8.144157 1.635422 -1.134881 16.846960 -1.967695 -1.435858 -4.625894 -3.144428 7.038407 3.290529 -2.756140 0.378228 -18.918396 -9.882208 36.265509 -61.777206 -26.158605 11.558069 5.285787 -36.663186 -6.756405 -1.394994 -5.327239 6.431807 -21.071013 -1.943577 -69.810465 -44.116459 44.778184 -8.826380 11.455625 36.392810 26.852690 -49.757689 -27.813694 -111.629966 66.549999 -102.350421 -3.187658 -4.538928 2.101883 -0.160144 -0.727348 -0.123470 -9.117418 -52.295844 13.566283 111.393210 79.750361 109.090078 -3.948921 -11.530606 -4.232349 0.447666 0.721771 0.201047
-21.680940 48.878091 28.628004 175.586180 -30.948332 -1.156461 0.266223 14.257137 2.138373 -0.033886 8.148321 1.630430 -0.005574 10.185133 2.042369 -0.043621 8.137210 1.646453 -1.127919 16.761573 -1.898457 -1.434281 -4.722521 -3.086995 7.028584 3.323426 -2.713246 0.400656 -19.013621 -9.849241 36.328018 -61.702146 -26.226841 11.556246 5.266892 -36.657474 -6.756605 -1.376496 -5.339803 6.440604 -21.083687 -1.934534 -69.727977 -44.166955 44.779471 -8.835193 11.425501 36.329608 26.948203 -49.747644 -27.909702 -111.667353 66.541966 -102.389899 -3.202422 -4.435844 2.099524 -0.129014 -0.821220 -0.105295 -9.019898 -52.294820 13.471552 111.370320 79.760939 109.056692 -3.984834 -11.586593 -4.240147 0.489751 0.784316 0.224798
-21.682265 48.869967 28.637592 175.589002 -30.964608 -1.113049 0.226473 14.231552 2.119697 -0.027380 8.171090 1.614262 -0.010506 10.188719 2.041500 -0.046626 8.144577 1.642614 -1.120705 16.680582 -1.839222 -1.433850 -4.818052 -3.029010 7.030465 3.346793 -2.705811 0.404579 -19.079951 -9.817649 36.365124 -61.639558 -26.253811 11.478731 5.203176 -36.709267 -6.747954 -1.365347 -5.358172 6.473738 -21.074042 -1.896458 -69.641245 -44.278621 44.761430 -8.842491 11.385485 36.270176 26.991394 -49.730813 -27.973875 -111.702350 66.542307 -102.431777 -3.203078 -4.425421 2.113057 -0.126215 -0.830770 -0.107742 -8.979934 -52.285964 13.425505 111.345433 79.795304 109.000421 -3.958234 -11.559488 -4.224063 0.471780 0.780491 0.225385
-21.679840 48.862206 28.646788 175.572663 -30.986118 -1.078901 0.222495 14.233981 2.106683 -0.040320 8.162645 1.623452 -0.006852 10.204261 2.029849 -0.055004 8.148583 1.641011 -1.112030 16.624733 -1.804489 -1.432593 -4.926194 -2.957075 7.031972 3.370710 -2.696281 0.418833 -19.139670 -9.813936 36.339129 -61.630733 -26.237307 11.472661 5.196920 -36.709788 -6.745346 -1.344296 -5.375742 6.511279 -21.076955 -1.897077 -69.542110 -44.360683 44.748881 -8.838616 11.334886 36.212995 27.019829 -49.719617 -28.006381 -111.727487 66.547466 -102.457450 -3.207373 -4.411407 2.111197 -0.117014 -0.842319 -0.109858 -8.956295 -52.270223 13.413011 111.370260 79.818910 108.999386 -3.938834 -11.541222 -4.215486 0.455141 0.775947 0.223315
-21.674209 48.854646 28.656084 175.546624 -31.008631 -1.056593 0.234560 14.238842 2.111617 -0.048093 8.162563 1.622904 -0.012213 10.212108 2.023612 -0.050588 8.156418 1.632095 -1.109210 16.569168 -1.761961 -1.429988 -5.022983 -2.887377 7.024440 3.384747 -2.681369 0.434941 -19.199125 -9.811434 36.292025 -61.615814 -26.200006 11.462944 5.181430 -36.713389 -6.756088 -1.322663 -5.384677 6.536795 -21.093464 -1.896670 -69.415776 -44.432095 44.735847 -8.836000 11.273791 36.149499 27.027557 -49.717169 -28.011085 -111.746208 66.554737 -102.466400 -3.225524 -4.398364 2.081389 -0.093163 -0.854394 -0.096290 -8.947154 -52.251067 13.426179 111.405932 79.834731 109.014803 -3.921677 -11.531783 -4.214966 0.438553 0.776030 0.215884
